# Alias OBJ Model File
# Exported from SketchUp, (c) 2000-2012 Trimble Navigation Limited
# File units = millimeters

mtllib diamondGreen.mtl

g Mesh1 Model

usemtl Color_F07
v 1.60875 0 -0.14625
vt 0.0609963 -0.00895971
vn -0.169216 -0.497662 0.850705
v 1.60875 0.25 -0
vt 0.0621196 0.00238782
v 0.993108 0.25 -0.122459
vt 0.0374069 0.00238782
v 1.04908 0 -0.257576
vt 0.0385302 -0.00895971
f 1/1/1 2/2/1 3/3/1 4/4/1 

usemtl Color_G08
v 2.16842 0 -0.257576
vt 0.085709 0.00333888
vn 0.169216 -0.497662 0.850705
v 2.22439 0.25 -0.122459
vt 0.0868323 0.0146864
vt 0.0621196 0.0146864
vt 0.0632429 0.00333888
f 5/5/2 6/6/2 2/7/2 1/8/2 

usemtl Color_F07
v 2.64289 0 -0.574606
vt 0.0990835 0.0194078
vn 0.481885 -0.497662 0.721193
v 2.74631 0.25 -0.471192
vt 0.100207 0.0307553
vt 0.075494 0.0307553
vt 0.0766174 0.0194078
f 7/9/3 8/10/3 6/11/3 5/12/3 

usemtl Color_G08
vt 0.0766174 0.0368006
vn 0.721193 -0.497662 0.481885
v 2.95992 0 -1.04908
vt 0.0990835 0.0368006
v 3.09504 0.25 -0.993108
vt 0.100207 0.0481481
vt 0.075494 0.0481481
f 7/13/4 9/14/4 10/15/4 8/16/4 

v 1.60875 0 -3.07125
vt -0.0633366 0.120915
vn 0 -1 -0
v 2.16842 0 -2.95992
vt -0.085371 0.116532
v 2.64289 0 -2.64289
vt -0.104051 0.104051
v 2.95992 0 -2.16842
vt -0.116532 0.085371
v 3.07125 0 -1.60875
vt -0.120915 0.0633366
vt -0.116532 0.0413022
vt -0.104051 0.0226223
vt -0.085371 0.0101408
vt -0.0633366 0.00575787
vt -0.0413022 0.0101408
v 0.574606 0 -0.574606
vt -0.0226223 0.0226223
v 0.257576 0 -1.04908
vt -0.0101408 0.0413022
v 0.14625 0 -1.60875
vt -0.00575787 0.0633366
v 0.257576 0 -2.16842
vt -0.0101408 0.085371
v 0.574606 0 -2.64289
vt -0.0226223 0.104051
v 1.04908 0 -2.95992
vt -0.0413022 0.116532
f 11/17/5 12/18/5 13/19/5 14/20/5 15/21/5 9/22/5 7/23/5 5/24/5 1/25/5 4/26/5 16/27/5 17/28/5 18/29/5 19/30/5 20/31/5 21/32/5 

usemtl Color_F07
vt -0.0385302 0.0651681
vn 0.169216 -0.497662 -0.850705
v 1.60875 0.25 -3.2175
vt -0.0374069 0.0765156
v 2.22439 0.25 -3.09504
vt -0.0621196 0.0765156
vt -0.0609963 0.0651681
f 11/33/6 22/34/6 23/35/6 12/36/6 

usemtl Color_G08
vt -0.0632429 0.0528695
vn -0.169216 -0.497662 -0.850705
v 0.993108 0.25 -3.09504
vt -0.0621196 0.064217
vt -0.0868323 0.064217
vt -0.085709 0.0528695
f 21/37/7 24/38/7 22/39/7 11/40/7 

usemtl Color_F07
vt -0.0766174 0.0368006
vn -0.481885 -0.497662 -0.721193
v 0.471192 0.25 -2.74631
vt -0.075494 0.0481481
vt -0.100207 0.0481481
vt -0.0990835 0.0368006
f 20/41/8 25/42/8 24/43/8 21/44/8 

usemtl Color_G08
v 0.122459 0.25 -2.22439
vt -0.075494 0.0307553
vn -0.721193 -0.497662 -0.481885
vt -0.100207 0.0307553
vt -0.0990835 0.0194078
vt -0.0766174 0.0194078
f 26/45/9 25/46/9 20/47/9 19/48/9 

vt -0.075494 0.00983168
vn -0.83147 0.000242744 -0.55557
v 0.122607 0.9 -2.22433
vt -0.0754953 0.0354222
v 0.471306 0.9 -2.74619
vt -0.100206 0.0354222
vt -0.100207 0.00983168
f 26/49/10 27/50/10 28/51/10 25/52/10 

usemtl Color_F07
v 0 0.25 -1.60875
vt -0.0621196 0.00983952
vn -0.980785 0.000242744 -0.19509
v 0.000160875 0.9 -1.60875
vt -0.0621209 0.0354301
vt -0.0868311 0.0354301
vt -0.0868323 0.00983952
f 29/53/11 30/54/11 27/55/11 26/56/11 

usemtl Color_G08
v 0.122607 0.9 -0.99317
vt -0.0374081 0.0354361
vn -0.980785 0.000242744 0.19509
vt -0.0621184 0.0354361
vt -0.0621196 0.00984552
v 0.122459 0.25 -0.993108
vt -0.0374069 0.00984552
f 31/57/12 30/58/12 29/59/12 32/60/12 

vt -0.0621184 0.0314731
vn -0.600658 0.790528 0.119478
vt -0.0374081 0.0314731
v 1.46012 2 -1.54719
vt -0.0485276 0.102187
v 1.44787 2 -1.60875
vt -0.0509989 0.102187
f 30/61/13 31/62/13 33/63/13 34/64/13 

usemtl Color_F07
vt -0.0298297 0.0420459
vn -0.509213 0.790528 0.340245
v 0.471306 0.9 -0.471306
vt -0.00511941 0.0420459
v 1.49499 2 -1.49499
vt -0.0162389 0.11276
vt -0.0187102 0.11276
f 31/65/14 35/66/14 36/67/14 33/68/14 

vt -0.00511941 0.0354393
vn -0.83147 0.000242744 0.55557
vt -0.0298297 0.0354393
vt -0.0298309 0.00984877
v 0.471192 0.25 -0.471192
vt -0.00511817 0.00984877
f 35/69/15 31/70/15 32/71/15 37/72/15 

vt -0.00511817 -0.00426813
vn -0.721193 -0.497662 0.481885
vt -0.0298309 -0.00426813
vt -0.0287076 -0.0156157
vt -0.00624148 -0.0156157
f 37/73/16 32/74/16 17/75/16 16/76/16 

usemtl Color_G08
vt -0.0374069 0.00238782
vn -0.850705 -0.497662 0.169216
vt -0.0621196 0.00238782
vt -0.0609963 -0.00895971
vt -0.0385302 -0.00895971
f 32/77/17 29/78/17 18/79/17 17/80/17 

usemtl Color_F07
vt -0.0621196 0.0146864
vn -0.850705 -0.497662 -0.169216
vt -0.0868323 0.0146864
vt -0.085709 0.00333888
vt -0.0632429 0.00333888
f 29/81/18 26/82/18 19/83/18 18/84/18 

usemtl Color_G08
vt 0.0287076 -0.0156157
vn -0.481885 -0.497662 0.721193
vt 0.0298309 -0.00426813
vt 0.00511817 -0.00426813
vt 0.00624148 -0.0156157
f 4/85/19 3/86/19 37/87/19 16/88/19 

vt 0.0298309 0.00984877
vn -0.55557 0.000242744 0.83147
v 0.99317 0.9 -0.122607
vt 0.0298297 0.0354393
vt 0.00511941 0.0354393
vt 0.00511817 0.00984877
f 3/89/20 38/90/20 35/91/20 37/92/20 

usemtl Color_F07
vt 0.0621196 0.00984552
vn -0.19509 0.000242744 0.980785
v 1.60875 0.9 -0.000160875
vt 0.0621184 0.0354361
vt 0.0374081 0.0354361
vt 0.0374069 0.00984552
f 2/93/21 39/94/21 38/95/21 3/96/21 

usemtl Color_G08
vt 0.0868323 0.00983952
vn 0.19509 0.000242744 0.980785
v 2.22433 0.9 -0.122607
vt 0.0868311 0.0354301
vt 0.0621209 0.0354301
vt 0.0621196 0.00983952
f 6/97/22 40/98/22 39/99/22 2/100/22 

usemtl Color_F07
vt 0.100207 0.00983168
vn 0.55557 0.000242744 0.83147
v 2.74619 0.9 -0.471306
vt 0.100206 0.0354222
vt 0.0754953 0.0354222
vt 0.075494 0.00983168
f 8/101/23 41/102/23 40/103/23 6/104/23 

usemtl Color_G08
vt 0.0754953 0.0354138
vn 0.83147 0.000242744 0.55557
vt 0.075494 0.0098232
vt 0.100207 0.0098232
v 3.09489 0.9 -0.99317
vt 0.100206 0.0354138
f 41/105/24 8/106/24 10/107/24 42/108/24 

usemtl Color_F07
vt 0.0621209 0.0354059
vn 0.980785 0.000242744 0.19509
vt 0.0621196 0.00981536
v 3.2175 0.25 -1.60875
vt 0.0868323 0.00981536
v 3.21734 0.9 -1.60875
vt 0.0868311 0.0354059
f 42/109/25 10/110/25 43/111/25 44/112/25 

vt 0.0632429 0.0528695
vn 0.850705 -0.497662 0.169216
vt 0.085709 0.0528695
vt 0.0868323 0.064217
vt 0.0621196 0.064217
f 9/113/26 15/114/26 43/115/26 10/116/26 

usemtl Color_G08
vt 0.0385302 0.0651681
vn 0.850705 -0.497662 -0.169216
vt 0.0609963 0.0651681
v 3.09504 0.25 -2.22439
vt 0.0621196 0.0765156
vt 0.0374069 0.0765156
f 15/117/27 14/118/27 45/119/27 43/120/27 

usemtl Color_F07
vt 0.00624148 0.071824
vn 0.721193 -0.497662 -0.481885
vt 0.0287076 0.071824
v 2.74631 0.25 -2.74631
vt 0.0298309 0.0831715
vt 0.00511817 0.0831715
f 14/121/28 13/122/28 46/123/28 45/124/28 

usemtl Color_G08
vt -0.00624148 0.071824
vn 0.481885 -0.497662 -0.721193
vt -0.00511817 0.0831715
vt -0.0298309 0.0831715
vt -0.0287076 0.071824
f 12/125/29 23/126/29 46/127/29 13/128/29 

vt -0.00511817 0.00980612
vn 0.55557 0.000242744 -0.83147
v 2.22433 0.9 -3.09489
vt -0.00511941 0.0353967
v 2.74619 0.9 -2.74619
vt -0.0298297 0.0353967
vt -0.0298309 0.00980612
f 23/129/30 47/130/30 48/131/30 46/132/30 

usemtl Color_F07
vt -0.0374069 0.00980936
vn 0.19509 0.000242744 -0.980785
v 1.60875 0.9 -3.21734
vt -0.0374081 0.0353999
vt -0.0621184 0.0353999
vt -0.0621196 0.00980936
f 22/133/31 49/134/31 47/135/31 23/136/31 

usemtl Color_G08
vt -0.0621196 0.00981536
vn -0.19509 0.000242744 -0.980785
v 0.99317 0.9 -3.09489
vt -0.0621209 0.0354059
vt -0.0868311 0.0354059
vt -0.0868323 0.00981536
f 24/137/32 50/138/32 49/139/32 22/140/32 

usemtl Color_F07
vt -0.075494 0.0098232
vn -0.55557 0.000242744 -0.83147
vt -0.0754953 0.0354138
vt -0.100206 0.0354138
vt -0.100207 0.0098232
f 25/141/33 28/142/33 50/143/33 24/144/33 

vt -0.0754953 -0.0412164
vn -0.340245 0.790528 -0.509213
v 1.49499 2 -1.72251
vt -0.0866148 0.0294976
v 1.54719 2 -1.75738
vt -0.089086 0.0294976
vt -0.100206 -0.0412164
f 28/145/34 51/146/34 52/147/34 50/148/34 

usemtl Color_G08
vt -0.0754953 -0.0135882
vn -0.509213 0.790528 -0.340245
v 1.46012 2 -1.67031
vt -0.0866148 0.0571259
vt -0.089086 0.0571259
vt -0.100206 -0.0135882
f 27/149/35 53/150/35 51/151/35 28/152/35 

usemtl Color_F07
vt -0.0621209 0.011937
vn -0.600658 0.790528 -0.119478
vt -0.0732403 0.082651
vt -0.0757116 0.082651
vt -0.0868311 0.011937
f 30/153/36 34/154/36 53/155/36 27/156/36 

usemtl Color_G08
vt 0.0574851 0.0609128
vn 0 1 -0
vt 0.058858 0.058858
v 1.54719 2 -1.46012
vt 0.0609128 0.0574851
v 1.60875 2 -1.44787
vt 0.0633366 0.0570029
v 1.67031 2 -1.46012
vt 0.0657604 0.0574851
v 1.72251 2 -1.49499
vt 0.0678152 0.058858
v 1.75738 2 -1.54719
vt 0.0691882 0.0609128
v 1.76963 2 -1.60875
vt 0.0696703 0.0633366
v 1.75738 2 -1.67031
vt 0.0691882 0.0657604
v 1.72251 2 -1.72251
vt 0.0678152 0.0678152
v 1.67031 2 -1.75738
vt 0.0657604 0.0691882
v 1.60875 2 -1.76963
vt 0.0633366 0.0696703
vt 0.0609128 0.0691882
vt 0.058858 0.0678152
vt 0.0574851 0.0657604
vt 0.0570029 0.0633366
f 33/157/37 36/158/37 54/159/37 55/160/37 56/161/37 57/162/37 58/163/37 59/164/37 60/165/37 61/166/37 62/167/37 63/168/37 52/169/37 51/170/37 53/171/37 34/172/37 

vt 0.00511941 0.0420459
vn -0.340245 0.790528 0.509213
vt 0.0298297 0.0420459
vt 0.0187102 0.11276
vt 0.0162389 0.11276
f 35/173/38 38/174/38 54/175/38 36/176/38 

usemtl Color_F07
vt 0.0374081 0.0314731
vn -0.119478 0.790528 0.600658
vt 0.0621184 0.0314731
vt 0.0509989 0.102187
vt 0.0485276 0.102187
f 38/177/39 39/178/39 55/179/39 54/180/39 

usemtl Color_G08
vt 0.0621209 0.011937
vn 0.119478 0.790528 0.600658
vt 0.0868311 0.011937
vt 0.0757116 0.082651
vt 0.0732403 0.082651
f 39/181/40 40/182/40 56/183/40 55/184/40 

usemtl Color_F07
vt 0.0866148 0.0571259
vn 0.340245 0.790528 0.509213
vt 0.0754953 -0.0135882
vt 0.100206 -0.0135882
vt 0.089086 0.0571259
f 56/185/41 40/186/41 41/187/41 57/188/41 

usemtl Color_G08
vt 0.0866148 0.0294976
vn 0.509213 0.790528 0.340245
vt 0.0754953 -0.0412164
vt 0.100206 -0.0412164
vt 0.089086 0.0294976
f 57/189/42 41/190/42 42/191/42 58/192/42 

usemtl Color_F07
vt 0.0732403 0.00397249
vn 0.600658 0.790528 0.119478
vt 0.0621209 -0.0667415
vt 0.0868311 -0.0667415
vt 0.0757116 0.00397249
f 58/193/43 42/194/43 44/195/43 59/196/43 

usemtl Color_G08
vt 0.0509989 -0.0155636
vn 0.600658 0.790528 -0.119478
vt 0.0485276 -0.0155636
vt 0.0374081 -0.0862776
v 3.09489 0.9 -2.22433
vt 0.0621184 -0.0862776
f 60/197/44 59/198/44 44/199/44 64/200/44 

vt 0.0374081 0.0353999
vn 0.980785 0.000242744 -0.19509
vt 0.0374069 0.00980936
vt 0.0621196 0.00980936
vt 0.0621184 0.0353999
f 44/201/45 43/202/45 45/203/45 64/204/45 

usemtl Color_F07
vt 0.00511817 0.00980612
vn 0.83147 0.000242744 -0.55557
vt 0.0298309 0.00980612
vt 0.0298297 0.0353967
vt 0.00511941 0.0353967
f 45/205/46 46/206/46 48/207/46 64/208/46 

vt 0.0187102 -0.0261365
vn 0.509213 0.790528 -0.340245
vt 0.0162389 -0.0261365
vt 0.00511941 -0.0968505
vt 0.0298297 -0.0968505
f 61/209/47 60/210/47 64/211/47 48/212/47 

usemtl Color_G08
vt -0.0162389 -0.0261365
vn 0.340245 0.790528 -0.509213
vt -0.0187102 -0.0261365
vt -0.0298297 -0.0968505
vt -0.00511941 -0.0968505
f 62/213/48 61/214/48 48/215/48 47/216/48 

usemtl Color_F07
vt -0.0485276 -0.0155636
vn 0.119478 0.790528 -0.600658
vt -0.0509989 -0.0155636
vt -0.0621184 -0.0862776
vt -0.0374081 -0.0862776
f 63/217/49 62/218/49 47/219/49 49/220/49 

usemtl Color_G08
vt -0.0621209 -0.0667415
vn -0.119478 0.790528 -0.600658
vt -0.0732403 0.00397249
vt -0.0757116 0.00397249
vt -0.0868311 -0.0667415
f 50/221/50 52/222/50 63/223/50 49/224/50 

