# Alias OBJ Model File
# Exported from SketchUp, (c) 2000-2012 Trimble Navigation Limited
# File units = inches

mtllib weight.mtl

g Mesh1 Model

usemtl FrontColor
v 844.527 272.664 -1310.75
vt -844.527 272.664
vn 0 0 -1
v 841.366 217.869 -1310.75
vt -841.366 217.869
v 824.132 165.759 -1310.75
vt -824.132 165.759
v 793.998 119.885 -1310.75
vt -793.998 119.885
v 753.017 83.3731 -1310.75
vt -753.017 83.3731
v 703.983 58.7123 -1310.75
vt -703.983 58.7123
v 650.237 47.5827 -1310.75
vt -650.237 47.5827
v 595.442 50.7429 -1310.75
vt -595.442 50.7429
v 543.331 67.9774 -1310.75
vt -543.331 67.9774
v 497.457 98.1118 -1310.75
vt -497.457 98.1118
v 460.946 139.092 -1310.75
vt -460.946 139.092
v 436.285 188.127 -1310.75
vt -436.285 188.127
v 425.156 241.873 -1310.75
vt -425.156 241.873
v 428.316 296.668 -1310.75
vt -428.316 296.668
v 445.55 348.778 -1310.75
vt -445.55 348.778
v 475.685 394.652 -1310.75
vt -475.685 394.652
v 516.665 431.163 -1310.75
vt -516.665 431.163
v 565.699 455.824 -1310.75
vt -565.699 455.824
v 619.445 466.954 -1310.75
vt -619.445 466.954
v 674.241 463.794 -1310.75
vt -674.241 463.794
v 726.351 446.559 -1310.75
vt -726.351 446.559
v 772.225 416.425 -1310.75
vt -772.225 416.425
v 808.736 375.444 -1310.75
vt -808.736 375.444
v 833.397 326.41 -1310.75
vt -833.397 326.41
f 1/1/1 2/2/1 3/3/1 4/4/1 5/5/1 6/6/1 7/7/1 8/8/1 9/9/1 10/10/1 11/11/1 12/12/1 13/13/1 14/14/1 15/15/1 16/16/1 17/17/1 18/18/1 19/19/1 20/20/1 21/21/1 22/22/1 23/23/1 24/24/1 

usemtl Color_006
v 844.527 272.664 -0
vt 0 320.837
vn 0.997315 0.0732258 -0
v 841.366 217.869 -0
vt 0 265.95
vn 0.982285 -0.187394 -0
vt 1310.75 265.95
vt 1310.75 320.837
f 25/25/2 26/26/3 2/27/3 1/28/2 

usemtl FrontColor
vt 841.366 217.869
vn 0 0 1
vt 844.527 272.664
v 833.397 326.41 -0
vt 833.397 326.41
v 808.736 375.444 -0
vt 808.736 375.444
v 772.225 416.425 -0
vt 772.225 416.425
v 726.351 446.559 -0
vt 726.351 446.559
v 674.241 463.794 -0
vt 674.241 463.794
v 619.445 466.954 -0
vt 619.445 466.954
v 565.699 455.824 -0
vt 565.699 455.824
v 516.665 431.163 -0
vt 516.665 431.163
v 475.685 394.652 -0
vt 475.685 394.652
v 445.55 348.778 -0
vt 445.55 348.778
v 428.316 296.668 -0
vt 428.316 296.668
v 425.156 241.873 -0
vt 425.156 241.873
v 436.285 188.127 -0
vt 436.285 188.127
v 460.946 139.092 -0
vt 460.946 139.092
v 497.457 98.1118 -0
vt 497.457 98.1118
v 543.331 67.9774 -0
vt 543.331 67.9774
v 595.442 50.7429 -0
vt 595.442 50.7429
v 650.237 47.5827 -0
vt 650.237 47.5827
v 703.983 58.7123 -0
vt 703.983 58.7123
v 753.017 83.3731 -0
vt 753.017 83.3731
v 793.998 119.885 -0
vt 793.998 119.885
v 824.132 165.759 -0
vt 824.132 165.759
f 26/29/4 25/30/4 27/31/4 28/32/4 29/33/4 30/34/4 31/35/4 32/36/4 33/37/4 34/38/4 35/39/4 36/40/4 37/41/4 38/42/4 39/43/4 40/44/4 41/45/4 42/46/4 43/47/4 44/48/4 45/49/4 46/50/4 47/51/4 48/52/4 

usemtl Color_006
v 1442.61 231.38 -0
vt -1442.61 231.38
f 49/53/1 26/2/1 25/1/1

f 49/53/1 48/3/1 26/2/1

f 49/53/1 47/4/1 48/3/1

f 49/53/1 46/5/1 47/4/1

f 49/53/1 45/6/1 46/5/1

v 1412.98 21.0256 -0
vt -1412.98 21.0256
f 50/54/1 45/6/1 49/53/1

f 50/54/1 44/7/1 45/6/1

v -159.001 35.248 -0
vt 159.001 35.248
f 50/54/1 51/55/1 44/7/1

v -79.4859 -161.74 -0
vt 79.4859 -161.74
f 50/54/1 52/56/1 51/55/1

v 1329.91 -174.492 -0
vt -1329.91 -174.492
f 53/57/1 52/56/1 50/54/1

v 48.3041 -331.437 -0
vt -48.3041 -331.437
f 53/57/1 54/58/1 52/56/1

v 1199.07 -341.848 -0
vt -1199.07 -341.848
f 55/59/1 54/58/1 53/57/1

v 215.66 -462.276 -0
vt -215.66 -462.276
f 55/59/1 56/60/1 54/58/1

v 1029.38 -469.638 -0
vt -1029.38 -469.638
f 57/61/1 56/60/1 55/59/1

v 411.178 -545.342 -0
vt -411.178 -545.342
f 57/61/1 58/62/1 56/60/1

v 832.389 -549.153 -0
vt -832.389 -549.153
f 59/63/1 58/62/1 57/61/1

v 621.532 -574.975 -0
vt -621.532 -574.975
f 58/62/1 59/63/1 60/64/1

vt 0 547.035
vn -0.00904708 -0.999959 -0
vt 0 759.466
vn 0.25007 -0.968228 -0
v 832.389 -549.153 1042
vt -1042 759.466
v 621.532 -574.975 1042
vt -1042 547.035
f 60/65/5 59/66/6 61/67/6 62/68/5 

vt 0 566.324
vt 0 778.755
vn 0.492145 -0.870513 -0
v 1029.38 -469.638 1042
vt -1042 778.755
vt -1042 566.324
f 59/69/6 57/70/7 63/71/7 61/72/6 

vt 0 539.781
vt 0 752.212
vn 0.700681 -0.713475 -0
v 1199.07 -341.848 1042
vt -1042 752.212
vt -1042 539.781
f 57/73/7 55/74/8 64/75/8 63/76/7 

vt 0 469.213
vt 0 681.645
vn 0.861466 -0.507815 -0
v 1329.91 -174.492 1042
vt -1042 681.645
vt -1042 469.213
f 55/77/8 53/78/9 65/79/9 64/80/8 

vt 0 359.432
vt 0 571.863
vn 0.963545 -0.267547 -0
v 1412.98 21.0256 1042
vt -1042 571.863
vt -1042 359.432
f 53/81/9 50/82/10 66/83/10 65/84/9 

vt 0 217.917
vt 0 430.349
vn 0.999959 -0.00904708 -0
v 1442.61 231.38 1042
vt -1042 430.349
vt -1042 217.917
f 50/85/10 49/86/11 67/87/11 66/88/10 

vt 0 54.3134
v 1416.79 442.236 -0
vt 0 266.745
vn 0.968228 0.25007 -0
v 1416.79 442.236 1042
vt -1042 266.745
vt -1042 54.3134
f 49/89/11 68/90/12 69/91/12 67/92/11 

vt -1416.79 442.236
f 49/53/1 25/1/1 68/93/1

f 68/93/1 25/1/1 27/24/1

vt 0 150.637
vn 0.94438 0.328855 -0
vt 0 95.7505
vt 1310.75 95.7505
vt 1310.75 150.637
f 27/94/13 25/95/2 1/96/2 24/97/13 

v 1410.09 439.425 -1310.75
vt 1410.09 439.425
f 1/30/4 70/98/4 24/31/4

v 1437.46 231.516 -1310.75
vt 1437.46 231.516
f 1/30/4 71/99/4 70/98/4

f 2/29/4 71/99/4 1/30/4

f 3/52/4 71/99/4 2/29/4

f 4/51/4 71/99/4 3/52/4

f 5/50/4 71/99/4 4/51/4

f 6/49/4 71/99/4 5/50/4

v 1410.09 23.6079 -1310.75
vt 1410.09 23.6079
f 6/49/4 72/100/4 71/99/4

f 7/48/4 72/100/4 6/49/4

v -141.759 23.6079 -1310.75
vt -141.759 23.6079
f 73/101/4 72/100/4 7/48/4

v -61.5088 -170.132 -1310.75
vt -61.5088 -170.132
f 74/102/4 72/100/4 73/101/4

v 1329.84 -170.132 -1310.75
vt 1329.84 -170.132
f 74/102/4 75/103/4 72/100/4

v 66.1499 -336.5 -1310.75
vt 66.1499 -336.5
f 76/104/4 75/103/4 74/102/4

v 1202.18 -336.5 -1310.75
vt 1202.18 -336.5
f 76/104/4 77/105/4 75/103/4

v 232.518 -464.159 -1310.75
vt 232.518 -464.159
f 78/106/4 77/105/4 76/104/4

v 1035.81 -464.159 -1310.75
vt 1035.81 -464.159
f 78/106/4 79/107/4 77/105/4

v 426.258 -544.409 -1310.75
vt 426.258 -544.409
f 80/108/4 79/107/4 78/106/4

v 842.075 -544.409 -1310.75
vt 842.075 -544.409
f 80/108/4 81/109/4 79/107/4

v 634.166 -571.78 -1310.75
vt 634.166 -571.78
f 81/109/4 80/108/4 82/110/4

vt -1310.75 -703.373
vn -1.53973e-016 -1 -0
vt -1310.75 -493.671
vn -0.258819 -0.965926 -0
v 426.258 -544.409 -2611
vt -2611 -493.671
v 634.166 -571.78 -2611
vt -2611 -703.373
f 82/111/14 80/112/15 83/113/15 84/114/14 

vt -1310.75 -602.147
vt -1310.75 -392.445
vn -0.5 -0.866025 -0
v 232.518 -464.159 -2611
vt -2611 -392.445
vt -2611 -602.147
f 80/115/15 78/116/16 85/117/16 83/118/15 

vt -1310.75 -467.031
vt -1310.75 -257.329
vn -0.707107 -0.707107 -0
v 66.1499 -336.5 -2611
vt -2611 -257.329
vt -2611 -467.031
f 78/119/16 76/120/17 86/121/17 85/122/16 

vt -1310.75 -307.233
vt -1310.75 -97.5305
vn -0.866025 -0.5 -0
v -61.5088 -170.132 -2611
vt -2611 -97.5305
vt -2611 -307.233
f 76/123/17 74/124/18 87/125/18 86/126/17 

vt -1310.75 -133.643
vt -1310.75 76.0595
vn -0.965926 -0.258819 -0
v -141.759 23.6079 -2611
vt -2611 76.0595
vt -2611 -133.643
f 74/127/18 73/128/19 88/129/19 87/130/18 

vt -1310.75 41.9092
v -169.13 231.516 -1310.75
vt -1310.75 251.612
vn -1 3.49938e-016 -0
v -169.13 231.516 -2611
vt -2611 251.612
vt -2611 41.9092
f 73/131/19 89/132/20 90/133/20 88/134/19 

vt -169.13 231.516
f 73/101/4 8/47/4 89/135/4

f 8/47/4 73/101/4 7/48/4

vt 0 -646.418
vn 0.0732258 -0.997315 -0
vt 0 -591.532
vn -0.187394 -0.982285 -0
vt -1310.75 -591.532
vt -1310.75 -646.418
f 44/136/21 43/137/22 8/138/22 7/139/21 

f 51/55/1 43/8/1 44/7/1

v -184.822 246.104 -0
vt 184.822 246.104
f 43/8/1 51/55/1 91/140/1

vn -0.999959 0.00904708 -0
vn -0.968228 -0.25007 -0
v -159.001 35.248 1042
vt 1042 54.3134
v -184.822 246.104 1042
vt 1042 266.745
f 91/90/23 51/89/24 92/141/24 93/142/23 

vt 0 92.2011
vt 0 -120.23
vn -0.870513 -0.492145 -0
v -79.4859 -161.74 1042
vt 1042 -120.23
vt 1042 92.2011
f 51/143/24 52/144/25 94/145/25 92/146/24 

vt 0 -81.3874
vt 0 -293.819
vn -0.713475 -0.700681 -0
v 48.3041 -331.437 1042
vt 1042 -293.819
vt 1042 -81.3874
f 52/147/25 54/148/26 95/149/26 94/150/25 

vt 0 -242.191
vt 0 -454.623
vn -0.507815 -0.861466 -0
v 215.66 -462.276 1042
vt 1042 -454.623
vt 1042 -242.191
f 54/151/26 56/152/27 96/153/27 95/154/26 

vt 0 -379.252
vt 0 -591.683
vn -0.267547 -0.963545 -0
v 411.178 -545.342 1042
vt 1042 -591.683
vt 1042 -379.252
f 56/155/27 58/156/28 97/157/28 96/158/27 

vt 0 -483.228
vt 0 -695.659
vt 1042 -695.659
vt 1042 -483.228
f 58/159/28 60/160/5 62/161/5 97/162/28 

vt 1412.98 21.0256
vt 1442.61 231.38
vt 1416.79 442.236
v 1337.27 639.225 1042
vt 1337.27 639.225
v 1209.48 808.921 1042
vt 1209.48 808.921
v 1042.13 939.76 1042
vt 1042.13 939.76
v 846.611 1022.83 1042
vt 846.611 1022.83
v 636.257 1052.46 1042
vt 636.257 1052.46
v 425.4 1026.64 1042
vt 425.4 1026.64
v 228.412 947.122 1042
vt 228.412 947.122
v 58.7156 819.332 1042
vt 58.7156 819.332
v -72.1238 651.976 1042
vt -72.1238 651.976
v -155.19 456.459 1042
vt -155.19 456.459
vt -184.822 246.104
vt -159.001 35.248
vt -79.4859 -161.74
vt 48.3041 -331.437
vt 215.66 -462.276
vt 411.178 -545.342
vt 621.532 -574.975
vt 832.389 -549.153
vt 1029.38 -469.638
vt 1199.07 -341.848
vt 1329.91 -174.492
f 66/163/4 67/164/4 69/165/4 98/166/4 99/167/4 100/168/4 101/169/4 102/170/4 103/171/4 104/172/4 105/173/4 106/174/4 107/175/4 93/176/4 92/177/4 94/178/4 95/179/4 96/180/4 97/181/4 62/182/4 61/183/4 63/184/4 64/185/4 65/186/4 

v 1337.27 639.225 -0
vn 0.870513 0.492145 -0
vt -1042 92.2011
vt -1042 -120.23
f 68/144/12 108/143/29 98/187/29 69/188/12 

vt -1337.27 639.225
f 68/93/1 30/21/1 108/189/1

f 68/93/1 29/22/1 30/21/1

f 68/93/1 28/23/1 29/22/1

f 68/93/1 27/24/1 28/23/1

vt 0 -27.9584
vn 0.827088 0.562073 -0
vt 0 -82.8447
vt 1310.75 -82.8447
vt 1310.75 -27.9584
f 28/190/30 27/191/13 24/192/13 23/193/30 

f 24/31/4 70/98/4 23/32/4

f 23/32/4 70/98/4 22/33/4

f 22/33/4 70/98/4 21/34/4

v 1329.84 633.165 -1310.75
vt 1329.84 633.165
f 21/34/4 70/98/4 109/194/4

vt 1310.75 76.0595
vn 0.866025 0.5 -0
vt 1310.75 -133.643
vn 0.965926 0.258819 -0
v 1410.09 439.425 -2611
vt 2611 -133.643
v 1329.84 633.165 -2611
vt 2611 76.0595
f 109/195/31 70/196/32 110/197/32 111/198/31 

vt 1310.75 251.612
vt 1310.75 41.9092
vn 1 -4.19926e-016 -0
v 1437.46 231.516 -2611
vt 2611 41.9092
vt 2611 251.612
f 70/199/32 71/200/33 112/201/33 110/202/32 

vt 1310.75 417.162
vt 1310.75 207.46
vn 0.965926 -0.258819 -0
v 1410.09 23.6079 -2611
vt 2611 207.46
vt 2611 417.162
f 71/203/33 72/204/34 113/205/34 112/206/33 

vt 1310.75 561.429
vt 1310.75 351.727
vn 0.866025 -0.5 -0
v 1329.84 -170.132 -2611
vt 2611 351.727
vt 2611 561.429
f 72/207/34 75/208/35 114/209/35 113/210/34 

vt 1310.75 674.582
vt 1310.75 464.879
vn 0.707107 -0.707107 -0
v 1202.18 -336.5 -2611
vt 2611 464.879
vt 2611 674.582
f 75/211/35 77/212/36 115/213/36 114/214/35 

vt 1310.75 748.908
vt 1310.75 539.205
vn 0.5 -0.866025 -0
v 1035.81 -464.159 -2611
vt 2611 539.205
vt 2611 748.908
f 77/215/36 79/216/37 116/217/37 115/218/36 

vt 1310.75 779.342
vt 1310.75 569.64
vn 0.258819 -0.965926 -0
v 842.075 -544.409 -2611
vt 2611 569.64
vt 2611 779.342
f 79/219/37 81/220/38 117/221/38 116/222/37 

vt 1310.75 763.811
vt 1310.75 554.109
vt 2611 554.109
vt 2611 763.811
f 81/223/38 82/224/14 84/225/14 117/226/38 

v 1035.81 927.192 -2611
vt -1035.81 927.192
v 1202.18 799.533 -2611
vt -1202.18 799.533
vt -1329.84 633.165
vt -1410.09 439.425
vt -1437.46 231.516
vt -1410.09 23.6079
vt -1329.84 -170.132
vt -1202.18 -336.5
vt -1035.81 -464.159
vt -842.075 -544.409
vt -634.166 -571.78
vt -426.258 -544.409
vt -232.518 -464.159
vt -66.1499 -336.5
vt 61.5088 -170.132
vt 141.759 23.6079
vt 169.13 231.516
v -141.759 439.425 -2611
vt 141.759 439.425
v -61.5088 633.165 -2611
vt 61.5088 633.165
v 66.1499 799.533 -2611
vt -66.1499 799.533
v 232.518 927.192 -2611
vt -232.518 927.192
v 426.258 1007.44 -2611
vt -426.258 1007.44
v 634.166 1034.81 -2611
vt -634.166 1034.81
v 842.075 1007.44 -2611
vt -842.075 1007.44
f 118/227/1 119/228/1 111/229/1 110/230/1 112/231/1 113/232/1 114/233/1 115/234/1 116/235/1 117/236/1 84/237/1 83/238/1 85/239/1 86/240/1 87/241/1 88/242/1 90/243/1 120/244/1 121/245/1 122/246/1 123/247/1 124/248/1 125/249/1 126/250/1 

v 1035.81 927.192 -1310.75
vt 1310.75 -257.329
vn 0.5 0.866025 -0
v 1202.18 799.533 -1310.75
vt 1310.75 -467.031
vn 0.707107 0.707107 -0
vt 2611 -467.031
vt 2611 -257.329
f 127/251/39 128/252/40 119/253/40 118/254/39 

v 66.1499 799.533 -1310.75
vt 66.1499 799.533
vt 1202.18 799.533
vt 1035.81 927.192
f 129/255/4 128/256/4 127/257/4

v -61.5088 633.165 -1310.75
vt -61.5088 633.165
f 130/258/4 128/256/4 129/255/4

f 130/258/4 109/194/4 128/256/4

f 130/258/4 19/36/4 109/194/4

f 130/258/4 18/37/4 19/36/4

v -141.759 439.425 -1310.75
vt -141.759 439.425
f 131/259/4 18/37/4 130/258/4

f 131/259/4 17/38/4 18/37/4

f 131/259/4 16/39/4 17/38/4

f 131/259/4 15/40/4 16/39/4

f 131/259/4 14/41/4 15/40/4

f 131/259/4 13/42/4 14/41/4

f 89/135/4 13/42/4 131/259/4

f 89/135/4 12/43/4 13/42/4

f 89/135/4 11/44/4 12/43/4

f 89/135/4 10/45/4 11/44/4

f 89/135/4 9/46/4 10/45/4

f 89/135/4 8/47/4 9/46/4

vt 0 -549.392
vt 0 -494.505
vn -0.435242 -0.900313 -0
vt -1310.75 -494.505
vt -1310.75 -549.392
f 43/260/22 42/261/41 9/262/41 8/263/22 

f 43/8/1 91/140/1 42/9/1

f 42/9/1 91/140/1 41/10/1

f 41/10/1 91/140/1 40/11/1

f 40/11/1 91/140/1 39/12/1

f 39/12/1 91/140/1 38/13/1

f 38/13/1 91/140/1 37/14/1

v -155.19 456.459 -0
vt 155.19 456.459
f 37/14/1 91/140/1 132/264/1

vn -0.963545 0.267547 -0
vt 1042 217.917
vt 1042 430.349
f 132/86/42 91/85/23 93/265/23 107/266/42 

v -72.1238 651.976 -0
vn -0.861466 0.507815 -0
vt 1042 359.432
vt 1042 571.863
f 133/82/43 132/81/42 107/267/42 106/268/43 

vt 72.1238 651.976
f 32/19/1 132/264/1 133/269/1

f 33/18/1 132/264/1 32/19/1

f 34/17/1 132/264/1 33/18/1

f 35/16/1 132/264/1 34/17/1

f 36/15/1 132/264/1 35/16/1

f 37/14/1 132/264/1 36/15/1

vt 0 416.156
vn -0.982285 0.187394 -0
vt 0 471.042
vn -0.900313 0.435242 -0
vt -1310.75 471.042
vt -1310.75 416.156
f 37/270/44 36/271/45 15/272/45 14/273/44 

vt 0 536.131
vt 0 591.017
vn -0.756987 0.65343 -0
vt -1310.75 591.017
vt -1310.75 536.131
f 36/274/45 35/275/46 16/276/46 15/277/45 

vt 0 617.699
vt 0 672.585
vn -0.562073 0.827088 -0
vt -1310.75 672.585
vt -1310.75 617.699
f 35/278/46 34/279/47 17/280/47 16/281/46 

vt 0 655.302
vt 0 710.188
vn -0.328855 0.94438 -0
vt -1310.75 710.188
vt -1310.75 655.302
f 34/282/47 33/283/48 18/284/48 17/285/47 

vt 0 646.377
vt 0 701.263
vn -0.0732258 0.997315 -0
vt -1310.75 701.263
vt -1310.75 646.377
f 33/286/48 32/287/49 19/288/49 18/289/48 

vn 0.187394 0.982285 -0
vt 1310.75 -646.418
vt 1310.75 -591.532
f 32/137/49 31/136/50 20/290/50 19/291/49 

f 108/189/1 31/20/1 32/19/1

f 108/189/1 30/21/1 31/20/1

vn 0.435242 0.900313 -0
vt 1310.75 -549.392
vt 1310.75 -494.505
f 31/261/50 30/260/51 21/292/51 20/293/50 

vt 0 -361.909
vt 0 -416.795
vn 0.65343 0.756987 -0
vt 1310.75 -416.795
vt 1310.75 -361.909
f 30/294/51 29/295/52 22/296/52 21/297/51 

vt 0 -202.778
vt 0 -257.664
vt 1310.75 -257.664
vt 1310.75 -202.778
f 29/298/52 28/299/30 23/300/30 22/301/52 

f 21/34/4 109/194/4 20/35/4

f 20/35/4 109/194/4 19/36/4

f 32/19/1 133/269/1 108/189/1

v 1209.48 808.921 -0
vt -1209.48 808.921
f 108/189/1 133/269/1 134/302/1

v 58.7156 819.332 -0
vt -58.7156 819.332
f 134/302/1 133/269/1 135/303/1

vn -0.700681 0.713475 -0
vt 1042 469.213
vt 1042 681.645
f 135/78/53 133/77/43 106/304/43 105/305/53 

v 228.412 947.122 -0
vn -0.492145 0.870513 -0
vt 1042 539.781
vt 1042 752.212
f 136/74/54 135/73/53 105/306/53 104/307/54 

v 1042.13 939.76 -0
vt -1042.13 939.76
vt -228.412 947.122
f 137/308/1 135/303/1 136/309/1

f 134/302/1 135/303/1 137/308/1

vn 0.713475 0.700681 -0
vn 0.507815 0.861466 -0
vt -1042 -242.191
vt -1042 -454.623
f 134/152/55 137/151/56 100/310/56 99/311/55 

v 846.611 1022.83 -0
vn 0.267547 0.963545 -0
vt -1042 -379.252
vt -1042 -591.683
f 137/156/56 138/155/57 101/312/57 100/313/56 

vt -846.611 1022.83
f 137/308/1 136/309/1 138/314/1

v 425.4 1026.64 -0
vt -425.4 1026.64
f 138/314/1 136/309/1 139/315/1

vn -0.25007 0.968228 -0
vt 1042 566.324
vt 1042 778.755
f 139/70/58 136/69/54 104/316/54 103/317/58 

v 636.257 1052.46 -0
vn 0.00904708 0.999959 -0
vt 1042 547.035
vt 1042 759.466
f 140/66/59 139/65/58 103/318/58 102/319/59 

vt -636.257 1052.46
f 138/314/1 139/315/1 140/320/1

vt -1042 -483.228
vt -1042 -695.659
f 138/160/57 140/159/59 102/321/59 101/322/57 

vt -1042 -81.3874
vt -1042 -293.819
f 108/148/29 134/147/55 99/323/55 98/324/29 

vn -0.997315 -0.0732258 -0
vt -1310.75 320.837
vt -1310.75 265.95
f 38/26/60 37/25/44 14/325/44 13/326/60 

vn -0.94438 -0.328855 -0
vt -1310.75 150.637
vt -1310.75 95.7505
f 39/95/61 38/94/60 13/327/60 12/328/61 

vn -0.827088 -0.562073 -0
vt -1310.75 -27.9584
vt -1310.75 -82.8447
f 40/191/62 39/190/61 12/329/61 11/330/62 

vn -0.65343 -0.756987 -0
vt -1310.75 -202.778
vt -1310.75 -257.664
f 41/299/63 40/298/62 11/331/62 10/332/63 

vt -1310.75 -361.909
vt -1310.75 -416.795
f 42/295/41 41/294/63 10/333/63 9/334/41 

vt -1310.75 207.46
vt -1310.75 417.162
vn -0.965926 0.258819 -0
vt -2611 417.162
vt -2611 207.46
f 89/335/20 131/336/64 120/337/64 90/338/20 

vt -1310.75 351.727
vt -1310.75 561.429
vn -0.866025 0.5 -0
vt -2611 561.429
vt -2611 351.727
f 131/339/64 130/340/65 121/341/65 120/342/64 

vt -1310.75 464.879
vt -1310.75 674.582
vn -0.707107 0.707107 -0
vt -2611 674.582
vt -2611 464.879
f 130/343/65 129/344/66 122/345/66 121/346/65 

vt -1310.75 539.205
v 232.518 927.192 -1310.75
vt -1310.75 748.908
vn -0.5 0.866025 -0
vt -2611 748.908
vt -2611 539.205
f 129/347/66 141/348/67 123/349/67 122/350/66 

vt 232.518 927.192
f 129/255/4 127/257/4 141/351/4

v 842.075 1007.44 -1310.75
vt 842.075 1007.44
f 141/351/4 127/257/4 142/352/4

vt 1310.75 -392.445
vn 0.258819 0.965926 -0
vt 1310.75 -602.147
vt 2611 -602.147
vt 2611 -392.445
f 142/353/68 127/354/39 118/355/39 126/356/68 

v 634.166 1034.81 -1310.75
vt 1310.75 -493.671
vn 3.07946e-016 1 -0
vt 1310.75 -703.373
vt 2611 -703.373
vt 2611 -493.671
f 143/357/69 142/358/68 126/359/68 125/360/69 

v 426.258 1007.44 -1310.75
vt 426.258 1007.44
vt 634.166 1034.81
f 144/361/4 142/352/4 143/362/4

f 141/351/4 142/352/4 144/361/4

vt -1310.75 569.64
vt -1310.75 779.342
vn -0.258819 0.965926 -0
vt -2611 779.342
vt -2611 569.64
f 141/363/67 144/364/70 124/365/70 123/366/67 

vt -1310.75 554.109
vt -1310.75 763.811
vt -2611 763.811
vt -2611 554.109
f 144/367/70 143/368/69 125/369/69 124/370/70 

vt 1310.75 -97.5305
vt 1310.75 -307.233
vt 2611 -307.233
vt 2611 -97.5305
f 128/371/40 109/372/31 111/373/31 119/374/40 

vn 0.328855 -0.94438 -0
vt 1310.75 646.377
vt 1310.75 701.263
f 45/287/71 44/286/21 7/375/21 6/376/71 

vn 0.562073 -0.827088 -0
vt 1310.75 655.302
vt 1310.75 710.188
f 46/283/72 45/282/71 6/377/71 5/378/72 

vn 0.756987 -0.65343 -0
vt 1310.75 617.699
vt 1310.75 672.585
f 47/279/73 46/278/72 5/379/72 4/380/73 

vn 0.900313 -0.435242 -0
vt 1310.75 536.131
vt 1310.75 591.017
f 48/275/74 47/274/73 4/381/73 3/382/74 

vt 1310.75 416.156
vt 1310.75 471.042
f 26/271/3 48/270/74 3/383/74 2/384/3 

